<?xml version="1.0" encoding="utf-8"?>
<svg xmlns="http://www.w3.org/2000/svg" width="200" height="200" viewBox="0 0 200 200" fill="#171717" stroke="none">
  <path d="M 178.798 107.411 C 178.798 118.959 176.902 129.153 173.471 138.178 L 134.526 15.616 L 172.298 29.106 C 176.227 30.523 178.838 34.276 178.797 38.472 Z M 103.352 195.559 C 101.208 196.284 98.873 196.251 96.746 195.467 C 75.186 188.023 55.443 177.699 41.552 162.446 L 58.293 109.251 L 90.886 6.575 L 96.746 4.482 C 98.89 3.732 101.217 3.732 103.352 4.482 L 109.146 6.551 L 141.712 109.251 L 158.453 162.461 C 144.573 177.722 124.857 188.068 103.352 195.559 Z M 21.202 107.411 L 21.202 38.472 C 21.177 34.252 23.837 30.498 27.808 29.106 L 65.46 15.657 L 26.529 138.176 C 23.097 129.153 21.202 118.959 21.202 107.411 Z M 123.914 83.6 L 76.29 83.6 L 69.627 102.624 L 130.07 102.624 Z" style=""/>
  <path d="M 58.292 109.277 L 41.551 162.472 C 35.185 155.483 30.049 147.458 26.528 138.202 L 65.459 15.683 L 90.885 6.601 L 58.292 109.277 Z M 141.711 109.277 L 109.145 6.577 L 134.526 15.642 L 173.471 138.204 C 169.951 147.463 164.815 155.492 158.453 162.487 L 141.711 109.277 Z M 130.069 102.65 L 69.626 102.65 L 76.289 83.626 L 123.913 83.626 L 130.069 102.65 Z" style="fill: transparent"/>
</svg>
